# xmcd
#
# Track frame offsets: 
#        150
#        21410
#        40918
#        65890
#        96235
#        121000
#        143820
#        165102
#        185952
#        211190
#        234120
#        253135
#        277865
#        299307
#        331525
#
# Disc length: 4731 seconds
#
# Revision: 0
# Processed by: cddbd v1.5.1PL0 Copyright (c) Steve Scherf et al.
# Submitted via: ExactAudioCopy v0.95b3
#
DISCID=d212790f
DTITLE=Luther Vandross - Legends of Soul CD2
DYEAR=2005
DGENRE=R&B
TTITLE0=Hello
TTITLE1=Endless Love(With Mariah Carey)
TTITLE2=Killing Me Softly
TTITLE3=Power Pf Love/love Power
TTITLE4=Its All About You
TTITLE5=Any Love
TTITLE6=When Yo Call On Me
TTITLE7=Dont Want To Be A Fool
TTITLE8=I Can Make It Better
TTITLE9=Love The One Your With
TTITLE10=Your Secret Love
TTITLE11=Im Only Human
TTITLE12=Theres Nothing Better Than Love
TTITLE13=A House Is Not A Home
TTITLE14=Going In Circles
EXTD=
EXTT0=
EXTT1=
EXTT2=
EXTT3=
EXTT4=
EXTT5=
EXTT6=
EXTT7=
EXTT8=
EXTT9=
EXTT10=
EXTT11=
EXTT12=
EXTT13=
EXTT14=
PLAYORDER=
